<?xml version="1.0" encoding="UTF-8"?>
<!DOCTYPE svg PUBLIC "-//W3C//DTD SVG 1.1//EN" "http://www.w3.org/Graphics/SVG/1.1/DTD/svg11.dtd">
<!-- Creator: CorelDRAW X7 -->
<svg xmlns="http://www.w3.org/2000/svg" xml:space="preserve" width="4.01575in" height="1.33858in" version="1.1" style="shape-rendering:geometricPrecision; text-rendering:geometricPrecision; image-rendering:optimizeQuality; fill-rule:evenodd; clip-rule:evenodd"
viewBox="0 0 4016 1339"
 xmlns:xlink="http://www.w3.org/1999/xlink">
 <defs>
  <style type="text/css">
   <![CDATA[
    .fil0 {fill:black}
   ]]>
  </style>
 </defs>
 <g id="Layer_x0020_1">
  <metadata id="CorelCorpID_0Corel-Layer"/>
  <g id="_912723872">
   <path class="fil0" d="M717 1051l0 207 -226 0 0 -1179 576 0 39 40 0 259 0 0 0 291c0,43 -35,79 -79,79l-70 0 192 510 -270 0 -97 -261c-28,-73 -33,-120 -33,-180l0 -247 83 0c21,0 39,-18 39,-40l0 -224 -154 0 0 745z"/>
   <polygon class="fil0" points="2365,79 2902,79 2941,119 2941,510 2700,510 2700,301 2552,301 2552,1027 2700,1027 2700,812 2941,812 2941,1219 2902,1258 2365,1258 2325,1219 2325,119 "/>
   <path class="fil0" d="M1200 471l452 0 39 40 0 708 -39 39 -452 0 -40 -39 0 -708 40 -40zm186 208l79 0 0 371 -79 0 0 -371z"/>
   <path class="fil0" d="M3035 471l452 0 39 40 0 708 -39 39 -452 0 -40 -39 0 -708 40 -40zm186 208l79 0 0 371 -79 0 0 -371z"/>
   <path class="fil0" d="M1968 471l265 0 39 40 0 708 -39 39 -452 0 -39 -39 0 -708 2 -3 -2 0 0 -429 226 0 0 392zm0 208l78 0 0 371 -78 0 0 -371z"/>
  </g>
 </g>
</svg>
