<?xml version="1.0" encoding="UTF-8"?>
<!DOCTYPE svg PUBLIC "-//W3C//DTD SVG 1.1//EN" "http://www.w3.org/Graphics/SVG/1.1/DTD/svg11.dtd">
<!-- Creator: CorelDRAW X7 -->
<svg xmlns="http://www.w3.org/2000/svg" xml:space="preserve" width="4in" height="1in" version="1.1" style="shape-rendering:geometricPrecision; text-rendering:geometricPrecision; image-rendering:optimizeQuality; fill-rule:evenodd; clip-rule:evenodd"
viewBox="0 0 4000 1000"
 xmlns:xlink="http://www.w3.org/1999/xlink">
 <defs>
  <style type="text/css">
   <![CDATA[
    .fil0 {fill:#282829}
   ]]>
  </style>
 </defs>
 <g id="Layer_x0020_1">
  <metadata id="CorelCorpID_0Corel-Layer"/>
  <g id="_650442832">
   <path class="fil0" d="M2151 288l491 0c49,0 -21,164 -66,169 36,36 -31,160 -81,165l-509 0 28 -55 71 0 109 -222 -71 0 28 -57zm99 192l-42 87 238 0c33,0 75,-87 43,-87l-239 0zm67 -135l-42 86 239 0c25,0 65,-86 43,-86l-240 0z"/>
   <path class="fil0" d="M322 622l178 0 65 -133 347 0c73,0 139,-201 100,-201l-525 0 -29 58 70 0 -109 221 -70 0 -27 55zm314 -276l-47 95 280 0c21,0 78,-95 46,-95l-279 0z"/>
   <path class="fil0" d="M1022 399l170 0 -83 168 173 0 62 -126 -68 0 21 -42 393 0c83,0 -27,223 -110,223l-227 0 -44 90 -166 0 25 -52 68 0 19 -38 -343 0 27 -55 65 0 62 -126 -64 0 20 -42zm420 42l180 0c47,0 -16,126 -62,126l-180 0 62 -126z"/>
   <polygon class="fil0" points="1128,316 1093,386 1198,386 1233,316 "/>
   <polygon class="fil0" points="1832,441 1806,493 2017,493 2043,441 "/>
   <path class="fil0" d="M2758 387l302 0c45,0 -49,235 -116,235l-302 0c-45,0 76,-235 116,-235zm46 44l184 0c29,0 -40,136 -67,136l-184 0c-17,0 48,-136 67,-136z"/>
   <path class="fil0" d="M3160 387l229 0 -21 44 -75 0 23 124 196 -124 -70 0 21 -44 215 0 -21 44 -54 0 -431 275c-5,3 -13,6 -21,6l-70 0 25 -52 46 0 101 -64 -30 -165 -85 0 22 -44z"/>
  </g>
 </g>
</svg>
